<?xml version="1.0" encoding="UTF-8"?>
<svg width="235px" height="58px" viewBox="0 0 235 58" version="1.1" xmlns="http://www.w3.org/2000/svg" xmlns:xlink="http://www.w3.org/1999/xlink">
    <!-- Generator: Sketch 63.1 (92452) - https://sketch.com -->
    <title>HEAVY Magazine Logo black</title>
    <desc>Created with Sketch.</desc>
    <g id="HEAVY-Magazine-Logo-black" stroke="none" stroke-width="1" fill="none" fill-rule="evenodd">
        <g id="Group-2">
            <path d="M17.7777778,0 L17.777,20.88 L32.222,20.88 L32.2222222,0 L50,0 L50,58 L32.2222222,58 L32.222,35.96 L17.777,35.96 L17.7777778,58 L0,58 L0,0 L17.7777778,0 Z" id="Combined-Shape" fill="#222222"></path>
            <path d="M106,-4.52970994e-13 L100.50743,14.8671195 L76.954,14.867 L76.954,22.04 L97.8083233,22.04 L92.6170116,35.96 L76.954,35.96 L76.954,43.154 L89.9205503,43.1547566 L84.4436539,58 L76.954,57.999 L76.9542171,58 L58,58 L58,-2.25597319e-13 L106,-4.52970994e-13 Z" id="Combined-Shape" fill="#222222"></path>
            <polygon id="Rectangle" fill="#EF1A3B" points="114.975388 24 127 58 103 58"></polygon>
            <path d="M159.053953,58 L141.164512,58 L120,0 L137.915233,0 L150.02055,33.1734997 L162.199814,0 L183.845887,9.09494702e-13 C191.855062,14.2741126 195.859649,21.411169 195.859649,21.411169 L208.130213,9.09494702e-13 L226,9.09494702e-13 L204.677162,36.9728003 L204.677162,58 L186.87539,58 L186.87539,36.9728003 L174.583709,15.2625363 L159.053953,58 Z" id="Combined-Shape" fill="#222222"></path>
        </g>
        <path d="M232.054777,0 L232.997452,2.86344828 L233.950318,0 L235,0 L235,4 L234.322293,4 L234.322293,0.772413793 L233.298089,4 L232.707006,4 L231.677707,0.772413793 L231.677707,4 L231,4 L231,0 L232.054777,0 Z M227,0.667586207 L227,0 L230,0 L230,0.667586207 L228.849515,0.667586207 L228.849515,4 L228.150485,4 L228.150485,0.667586207 L227,0.667586207 Z" id="™" fill="#222222" fill-rule="nonzero"></path>
    </g>
</svg>